<?xml version="1.0" encoding="UTF-8"?>
<svg version="1.1" xmlns="http://www.w3.org/2000/svg" width="947" height="248">
<path d="M0 0 C0.99128906 0.80566406 1.98257813 1.61132812 3.00390625 2.44140625 C5.67474283 4.62105449 8.33989421 6.80727728 11 9 C15.76854601 5.54981671 20.29088778 1.90555066 24.75 -1.9375 C38.04651818 -13.17644866 53.78151867 -21.12555794 71.53515625 -19.8125 C79.16648539 -18.55588319 84.53854967 -14.07850767 89.3125 -8.1875 C99.35805119 6.06189598 97.6571164 28.5118963 94.97363281 44.82128906 C94.19221355 48.9622543 93.33527546 52.99417362 92 57 C92.96486328 57.23783203 92.96486328 57.23783203 93.94921875 57.48046875 C113.72208117 62.5858726 134.40740016 71.36970999 145.6875 89.375 C149.35491961 95.84437147 149.99090969 103.05384908 148.5390625 110.30078125 C144.59535179 123.73259596 133.32042582 132.13749774 121.59741211 138.69702148 C112.50539285 143.54039412 102.74654783 146.75115072 93 150 C93.31160461 152.20845985 93.62432346 154.41676251 93.9375 156.625 C94.11152344 157.85476562 94.28554687 159.08453125 94.46484375 160.3515625 C94.78316491 162.52172283 95.12602678 164.6888637 95.52075195 166.84643555 C96.34543505 172.27304358 96.22621568 177.70818745 96.25 183.1875 C96.2809375 184.94030273 96.2809375 184.94030273 96.3125 186.72851562 C96.36391996 198.25301438 94.42160567 209.97924931 86.3671875 218.78515625 C80.26740477 224.35154991 73.25458422 227.1596869 65 227 C49.41000689 225.34356323 36.09136456 217.60632952 24 208 C23.05640625 207.27039063 22.1128125 206.54078125 21.140625 205.7890625 C14.16560325 200.3312065 14.16560325 200.3312065 13 198 C9.12216968 198.56276903 7.33012415 200.31171752 4.5625 203 C-8.37472003 214.93330691 -25.77869683 226.70226629 -44 227 C-52.67204638 226.27284083 -59.32717323 223.13184585 -65.25 216.75 C-75.65904543 203.59726596 -75.17458535 185.58043046 -73.38134766 169.68261719 C-72.55654899 163.06223324 -71.47046873 156.50760627 -70 150 C-71.07894531 149.68289062 -72.15789062 149.36578125 -73.26953125 149.0390625 C-92.77126574 143.06981683 -112.98806595 134.34562921 -123.94921875 116.109375 C-127.2448472 109.49361529 -127.66954684 103.20196675 -126 96 C-120.06343628 79.74219064 -105.9856729 71.21822884 -91.10302734 63.95654297 C-75.8085758 57 -75.8085758 57 -69 57 C-69.27714844 55.97261719 -69.55429688 54.94523437 -69.83984375 53.88671875 C-71.9411561 45.92775725 -73.73814332 38.26556301 -74 30 C-74.03996094 28.81664062 -74.07992187 27.63328125 -74.12109375 26.4140625 C-74.36739233 12.1287451 -72.8434649 -0.72218835 -63.765625 -12.20703125 C-44.8673754 -31.39795285 -16.33458724 -13.2905377 0 0 Z M-55.625 -2.5 C-61.1638011 4.70152323 -61.49534725 13.83378455 -61.375 22.5625 C-61.36774902 23.60229004 -61.36049805 24.64208008 -61.35302734 25.71337891 C-61.58442386 40.82538797 -61.58442386 40.82538797 -56 54 C-52.95231679 53.63793842 -50.01147912 53.00357274 -47.01367188 52.35742188 C-42.92800277 51.50728704 -38.93526505 50.85840959 -34.7734375 50.51171875 C-25.16750553 49.87487085 -25.16750553 49.87487085 -16.953125 45.43359375 C-13.29859784 40.67175561 -13.29859784 40.67175561 -12 35 C-11.34 35 -10.68 35 -10 35 C-8.35711054 33.18680717 -8.35711054 33.18680717 -6.6875 30.875 C-3.88223106 27.16007272 -1.00652019 23.55316023 2 20 C-2.70743653 14.05376439 -7.97089147 9.57514345 -14 5 C-14.86238281 4.30390625 -14.86238281 4.30390625 -15.7421875 3.59375 C-26.05113539 -4.40722448 -44.49202321 -13.10283504 -55.625 -2.5 Z M27 13 C26.26136719 13.62777344 25.52273437 14.25554688 24.76171875 14.90234375 C23.16753381 16.2601165 21.58243756 17.62855411 20 19 C20.763125 19.86625 21.52625 20.7325 22.3125 21.625 C25.47770511 25.31648625 28.49632123 29.11463612 31.5 32.9375 C31.95028564 33.51000488 32.40057129 34.08250977 32.86450195 34.67236328 C33.53485474 35.52870361 33.53485474 35.52870361 34.21875 36.40234375 C34.68837158 36.98032715 35.15799316 37.55831055 35.6418457 38.15380859 C37 40 37 40 38.03588867 42.10009766 C39.7455458 45.21945948 41.33146371 47.38701963 44.77227783 48.65109253 C50.20049483 50.08433157 55.75537176 50.76968659 61.3125 51.5 C63.01153337 51.74945289 64.7101115 52.00202753 66.40820312 52.2578125 C73.17973456 53.45775767 73.17973456 53.45775767 80 54 C86.06577066 26.68046451 86.06577066 26.68046451 80 0 C77.1321853 -3.4171066 73.56844304 -6.7431557 68.96875 -7.203125 C51.91408506 -7.52694775 39.44568105 2.2559542 27 13 Z M11 29 C9.19061912 30.84826014 7.43136186 32.71645261 5.6875 34.625 C5.20087891 35.14707031 4.71425781 35.66914062 4.21289062 36.20703125 C3.73400391 36.72910156 3.25511719 37.25117187 2.76171875 37.7890625 C2.32819092 38.26037598 1.89466309 38.73168945 1.44799805 39.21728516 C-0.54851314 41.67530651 -2.24343641 44.36515461 -4 47 C5.9 47 15.8 47 26 47 C23.90539591 43.50899318 21.89582072 40.38915744 19.4375 37.1875 C18.53837891 36.00220703 18.53837891 36.00220703 17.62109375 34.79296875 C16.81865234 33.90544922 16.81865234 33.90544922 16 33 C15.34 33 14.68 33 14 33 C13.34 31.68 12.68 30.36 12 29 C11.67 29 11.34 29 11 29 Z M-5.19140625 58.734375 C-8.61467614 58.62120905 -10.84688385 58.65479765 -14 60 C-17.38305629 63.70702243 -19.6728973 67.65816458 -21.97802734 72.09228516 C-23.52580629 74.98152183 -25.34013964 77.69024839 -27.125 80.4375 C-30.00518853 85.16634072 -32.63569968 89.96445816 -35.0625 94.9375 C-35.37396973 95.55230225 -35.68543945 96.16710449 -36.00634766 96.80053711 C-38.00037873 101.04146971 -38.07573478 103.50265097 -37 108 C-35.76929676 110.80403208 -35.76929676 110.80403208 -34.15625 113.5625 C-33.57431885 114.60083984 -32.9923877 115.63917969 -32.39282227 116.70898438 C-29.84441583 121.13985226 -27.29164427 125.5679566 -24.71826172 129.984375 C-23.26595837 132.53323135 -21.90950993 135.09620511 -20.59765625 137.71875 C-18.13026586 142.45553391 -16.12039625 146.29667446 -10.8203125 148.0546875 C-7.56186318 148.34199163 -4.46965124 148.34611019 -1.20849609 148.12304688 C2.00815223 147.94383056 5.20997462 148.03466034 8.4296875 148.09277344 C11.82116924 148.13529581 15.20810266 148.07796274 18.59912109 148.01953125 C20.8586262 148.00115008 23.10510051 148.05435068 25.36328125 148.125 C32.20613189 148.25217752 32.20613189 148.25217752 38.125 145.3046875 C40.0691891 142.64942924 41.50379825 139.93269592 43 137 C43.77375219 135.68800011 44.55836182 134.38236537 45.3515625 133.08203125 C47.97903628 128.76468013 50.49684785 124.39027895 53 120 C53.41056641 119.28956543 53.82113281 118.57913086 54.24414062 117.84716797 C55.40851356 115.82362325 56.55129526 113.78946587 57.6875 111.75 C58.03868896 111.14260986 58.38987793 110.53521973 58.75170898 109.90942383 C60.10713982 107.42382701 61.00320238 105.48596067 60.984375 102.62890625 C59.49139485 98.64170133 57.57178863 94.93691551 55.5625 91.1875 C55.12019043 90.35524902 54.67788086 89.52299805 54.22216797 88.66552734 C49.85252496 80.54827104 45.13457854 72.65682764 40 65 C39.49210937 64.04867187 38.98421875 63.09734375 38.4609375 62.1171875 C34.29124605 58.52992914 29.32190288 59.08954936 24 59 C22.97406738 58.97389648 21.94813477 58.94779297 20.89111328 58.92089844 C14.53862247 58.80992909 8.18867056 58.90706034 1.83642578 58.99804688 C-0.52680385 58.99967416 -2.83659533 58.9084081 -5.19140625 58.734375 Z M-44.875 63.5 C-46.050625 63.71462891 -46.050625 63.71462891 -47.25 63.93359375 C-49.16753249 64.28436189 -51.08389239 64.64152998 -53 65 C-52.42389687 70.54955043 -50.97901452 75.26029497 -48.9375 80.4375 C-48.65583984 81.16904297 -48.37417969 81.90058594 -48.08398438 82.65429688 C-47.39586753 84.43873546 -46.69885394 86.21973905 -46 88 C-43.42358078 85.65949042 -41.82443442 83.20747545 -40.1171875 80.18359375 C-39.58996094 79.25482422 -39.06273438 78.32605469 -38.51953125 77.36914062 C-37.97683594 76.40169922 -37.43414062 75.43425781 -36.875 74.4375 C-36.32457031 73.46619141 -35.77414063 72.49488281 -35.20703125 71.49414062 C-32.52212713 66.79072268 -32.52212713 66.79072268 -30 62 C-35.13957062 61.80295576 -39.85205373 62.55500502 -44.875 63.5 Z M53 62 C53.3403125 62.62003906 53.680625 63.24007812 54.03125 63.87890625 C58.41439366 71.88746926 62.71397072 79.93921904 67 88 C70.44226647 86.27886676 70.88884959 82.16276167 72.0625 78.6875 C72.33126953 77.91470703 72.60003906 77.14191406 72.87695312 76.34570312 C74.05883037 72.91796438 75.15833108 69.52908567 76 66 C68.53856054 63.67866328 60.85197327 61.80157468 53 62 Z M88 69 C87.78384033 69.5983667 87.56768066 70.1967334 87.3449707 70.81323242 C86.70039543 72.59595813 86.05382008 74.37796134 85.40576172 76.15942383 C84.67148068 78.19320848 83.9479854 80.23091684 83.23486328 82.2722168 C80.14825702 91.00785548 80.14825702 91.00785548 78.00390625 94.4765625 C75.50014961 98.83562082 74.4366637 101.82224263 75.73144531 106.82763672 C77.98377315 113.44624851 80.80756752 119.78026044 83.734375 126.12304688 C85.4448974 130.0113177 86.74424595 133.94425381 88 138 C104.58820042 133.3252777 124.88640088 126.933559 134.578125 111.484375 C136.74060141 106.78459293 137.69891335 102.88557731 135.9296875 97.92578125 C130.21779227 86.09399826 118.3672912 80.2606171 106.8125 75.125 C106.19648926 74.85099365 105.58047852 74.5769873 104.94580078 74.29467773 C99.45294489 71.9756478 93.76756441 70.4783884 88 69 Z M-106.375 88.3359375 C-108.23288652 89.85083769 -108.23288652 89.85083769 -108 92 C-108.66 92 -109.32 92 -110 92 C-113.39448578 96.20916237 -114.10952465 100.72456278 -114 106 C-111.97006899 114.11972403 -105.64991046 119.49707158 -98.9296875 124.10546875 C-88.81705738 130.1707005 -77.50955537 135.28144621 -66 138 C-65.76708252 137.41444336 -65.53416504 136.82888672 -65.29418945 136.22558594 C-63.42557041 131.53957249 -61.53380708 126.8649044 -59.60546875 122.203125 C-58.79898887 120.21894921 -57.99300298 118.23457257 -57.1875 116.25 C-56.76791016 115.24839844 -56.34832031 114.24679688 -55.91601562 113.21484375 C-52.07169423 103.65154011 -54.00095801 98.46410877 -57.8125 89.25 C-58.50651042 87.546875 -59.20052083 85.84375 -59.89453125 84.140625 C-60.23822754 83.30337891 -60.58192383 82.46613281 -60.93603516 81.60351562 C-62.64884356 77.41228367 -64.32456777 73.20628474 -66 69 C-79.12986686 69 -96.7291543 80.37176885 -106.375 88.3359375 Z M-46 119 C-47.17780436 121.91229133 -48.34025075 124.83047678 -49.5 127.75 C-49.83386719 128.575 -50.16773437 129.4 -50.51171875 130.25 C-50.98544922 131.44882813 -50.98544922 131.44882813 -51.46875 132.671875 C-51.76201172 133.4050293 -52.05527344 134.13818359 -52.35742188 134.89355469 C-53.19451943 137.27061119 -53.19451943 137.27061119 -53 141 C-47.85684266 142.60850387 -42.91147849 143.52795025 -37.5625 144.125 C-36.83095703 144.21136719 -36.09941406 144.29773438 -35.34570312 144.38671875 C-33.56439906 144.59628393 -31.78227719 144.79887868 -30 145 C-33.44221485 138.50703787 -37.05234511 132.12555861 -40.8125 125.8125 C-41.20945068 125.14081787 -41.60640137 124.46913574 -42.01538086 123.77709961 C-42.9811554 122.16691853 -43.98671977 120.58071716 -45 119 C-45.33 119 -45.66 119 -46 119 Z M67 119 C66.71801758 119.51385254 66.43603516 120.02770508 66.14550781 120.55712891 C64.84976582 122.91461527 63.54991698 125.26981334 62.25 127.625 C61.58484375 128.83736328 61.58484375 128.83736328 60.90625 130.07421875 C58.94195458 133.62728252 56.97733021 137.11660432 54.671875 140.4609375 C52.81668438 142.77172213 52.81668438 142.77172213 53 145 C56.27148931 144.52524326 59.54206119 144.04443581 62.8125 143.5625 C63.74126953 143.42779297 64.67003906 143.29308594 65.62695312 143.15429688 C66.51962891 143.02216797 67.41230469 142.89003906 68.33203125 142.75390625 C69.15421143 142.63345947 69.9763916 142.5130127 70.82348633 142.38891602 C73.16924057 142.02382108 73.16924057 142.02382108 76 141 C74.0827282 133.49068545 71.75950985 126.24196241 69 119 C68.34 119 67.68 119 67 119 Z M-57 153 C-57.48150942 155.04111542 -57.96010083 157.08291932 -58.4375 159.125 C-58.70433594 160.26195312 -58.97117187 161.39890625 -59.24609375 162.5703125 C-62.17919637 175.9136498 -64.32408771 194.72949944 -57 207 C-54.06473996 210.36018632 -50.6041817 213.63686709 -46.0390625 214.2734375 C-38.41408272 214.59422953 -32.75739398 212.37438192 -26 209 C-25.04222656 208.52691406 -24.08445313 208.05382812 -23.09765625 207.56640625 C-16.74399756 204.14651748 -11.23566081 199.96064051 -5.75 195.3125 C-5.08121826 194.75369141 -4.41243652 194.19488281 -3.72338867 193.61914062 C-3.10826416 193.08095703 -2.49313965 192.54277344 -1.859375 191.98828125 C-1.30733398 191.50915283 -0.75529297 191.03002441 -0.18652344 190.53637695 C1.40748609 188.79589902 1.40748609 188.79589902 1 185 C-0.40921185 182.65489937 -2.08853778 181.00248423 -4 179 C-4.66 179 -5.32 179 -6 179 C-6.28472168 178.42258057 -6.56944336 177.84516113 -6.86279297 177.25024414 C-13.03094198 164.86914044 -13.03094198 164.86914044 -23.76904297 156.95019531 C-29.88188106 155.60677983 -36.04370419 155.29999827 -42.28564453 155.11523438 C-45.77870194 154.96694124 -49.06409664 154.4498376 -52.5 153.8125 C-53.3971875 153.65394531 -54.294375 153.49539062 -55.21875 153.33203125 C-56.10046875 153.16767578 -56.10046875 153.16767578 -57 153 Z M67.74951172 154.81274414 C63.98364115 155.55364641 60.35483099 156.08914056 56.515625 156.22265625 C48.14981277 156.50684083 48.14981277 156.50684083 40.98828125 160.44140625 C38.42650599 163.51318272 36.20289461 166.66349904 34 170 C32.58105026 171.80639346 31.14472749 173.59934132 29.6875 175.375 C29.05199219 176.17421875 28.41648438 176.9734375 27.76171875 177.796875 C25.54749735 180.56587914 23.2836736 183.2881376 21 186 C27.07286802 199.26820928 44.21250593 207.39817731 57 213 C62.46530951 214.71166287 68.52634292 215.09468306 73.75 212.5 C79.90080244 208.43276405 82.17218952 202.33801904 83.60522461 195.39331055 C84.21988661 191.66694595 84.3815005 188.02232218 84.375 184.25 C84.37628906 183.45231201 84.37757813 182.65462402 84.37890625 181.83276367 C84.21206181 172.03160105 82.15188867 162.53040587 80 153 C75.81061542 153 71.83745615 153.97083231 67.74951172 154.81274414 Z M-3 160 C-1.45825859 163.08348282 -0.35664357 164.95194143 1.8203125 167.453125 C2.35527344 168.071875 2.89023438 168.690625 3.44140625 169.328125 C4.27478516 170.27945313 4.27478516 170.27945313 5.125 171.25 C5.68832031 171.8996875 6.25164062 172.549375 6.83203125 173.21875 C8.21764364 174.815727 9.60832754 176.40830122 11 178 C14.33680629 174.69869165 17.58824857 171.34443865 20.75 167.875 C21.52859375 167.02679688 22.3071875 166.17859375 23.109375 165.3046875 C25.17716215 163.06384899 25.17716215 163.06384899 26 160 C16.43 160 6.86 160 -3 160 Z " fill="#61DAFB" transform="translate(128,21)"/>
<path d="M0 0 C1.32380173 -0.0049926 1.32380173 -0.0049926 2.67434692 -0.01008606 C4.55242389 -0.01516396 6.43050993 -0.01749412 8.30859375 -0.01733398 C11.14859564 -0.01949569 13.98819323 -0.03757237 16.828125 -0.05664062 C41.99868584 -0.13835736 41.99868584 -0.13835736 49.66015625 6.421875 C54.41529041 11.42315728 55.56258549 15.92878691 55.7578125 22.79296875 C55.53482139 29.22997891 54.2615528 32.83848039 50.1328125 37.79296875 C45.53772433 41.67326542 41.40041642 44.16796875 35.3203125 44.16796875 C35.3203125 44.82796875 35.3203125 45.48796875 35.3203125 46.16796875 C35.8978125 46.41675781 36.4753125 46.66554687 37.0703125 46.921875 C48.42450066 53.21004518 56.83075121 69.85836028 62.3203125 81.16796875 C57.15610905 82.60005878 52.27820666 83.52415003 47.3203125 81.16796875 C42.74267037 76.49088721 39.76967765 70.64820788 36.63671875 64.95703125 C30.60918671 53.73676824 30.60918671 53.73676824 20.3203125 47.16796875 C18.10954623 46.81292634 18.10954623 46.81292634 15.89453125 46.75390625 C15.17612061 46.7182959 14.45770996 46.68268555 13.7175293 46.64599609 C12.37621948 46.59499756 12.37621948 46.59499756 11.0078125 46.54296875 C8.1409375 46.41921875 5.2740625 46.29546875 2.3203125 46.16796875 C2.3203125 57.71796875 2.3203125 69.26796875 2.3203125 81.16796875 C-1.6396875 81.16796875 -5.5996875 81.16796875 -9.6796875 81.16796875 C-9.70281109 70.7545395 -9.72060267 60.34111631 -9.73149967 49.92766666 C-9.73672847 45.09280048 -9.74382604 40.25795181 -9.75512695 35.4230957 C-9.76595597 30.76119755 -9.77196436 26.09931629 -9.77456474 21.43740654 C-9.77641897 19.65472587 -9.78003953 17.87204616 -9.78541756 16.08937263 C-9.79262819 13.60130915 -9.79367843 11.11331632 -9.79321289 8.62524414 C-9.79680817 7.88078033 -9.80040344 7.13631653 -9.80410767 6.36929321 C-9.78834226 -1.36632474 -6.85428433 0.00889874 0 0 Z M2.3203125 10.16796875 C2.3203125 18.74796875 2.3203125 27.32796875 2.3203125 36.16796875 C6.6538152 36.22213753 10.986634 36.26172699 15.3203125 36.29296875 C16.54105469 36.30972656 17.76179688 36.32648438 19.01953125 36.34375 C30.42284655 36.64383603 30.42284655 36.64383603 40.2578125 31.66796875 C43.41177722 27.84498121 43.73047554 25.34421843 43.66015625 20.4921875 C43.06002281 16.3878266 41.44333818 14.8923103 38.3203125 12.16796875 C33.52944748 10.47283388 29.35594834 9.92765199 24.29296875 9.97265625 C23.00712891 9.97910156 21.72128906 9.98554687 20.39648438 9.9921875 C19.05859096 10.00889274 17.72070033 10.02582256 16.3828125 10.04296875 C15.01758467 10.05301553 13.6523497 10.06213839 12.28710938 10.0703125 C8.96476724 10.09379195 5.64251673 10.12966018 2.3203125 10.16796875 Z " fill="#60D9FA" transform="translate(327.6796875,83.83203125)"/>
<path d="M0 0 C3.63 0 7.26 0 11 0 C13.99474992 3.07410165 15.83461097 5.42098621 18 9 C19.12239624 10.65222914 20.248253 12.30211242 21.37744141 13.94970703 C22.53925098 15.71660285 23.69715278 17.48607309 24.8515625 19.2578125 C25.78444595 20.6787471 25.78444595 20.6787471 26.73617554 22.12838745 C28.70270846 25.12492229 30.66413633 28.12475295 32.625 31.125 C34.59384246 34.13182778 36.56378852 37.1379232 38.5352478 40.14303589 C39.75572729 42.00399699 40.97459097 43.86601916 42.19155884 45.72927856 C42.74918915 46.58061371 43.30681946 47.43194885 43.88134766 48.30908203 C44.36431305 49.04804718 44.84727844 49.78701233 45.34487915 50.54837036 C47.50087897 53.74192149 49.76037648 56.86452707 52 60 C52.33 40.2 52.66 20.4 53 0 C56.63 0 60.26 0 64 0 C64 26.73 64 53.46 64 81 C52 81 52 81 49.46044922 79.16503906 C48.95529785 78.29073242 48.45014648 77.41642578 47.9296875 76.515625 C46.99334473 75.00452148 46.99334473 75.00452148 46.03808594 73.46289062 C45.7146521 72.90609619 45.39121826 72.34930176 45.0579834 71.77563477 C43.52312721 69.19965484 41.82725605 66.74189268 40.13897705 64.26477051 C37.76919886 60.7810531 35.45231573 57.26216008 33.125 53.75 C32.18641893 52.33709274 31.2476177 50.92433171 30.30859375 49.51171875 C28.54697516 46.86125376 26.78682535 44.2098249 25.02783203 41.55761719 C20.69327042 35.03305694 16.34505239 28.51757858 12 22 C11.67 41.47 11.34 60.94 11 81 C7.37 81 3.74 81 0 81 C0 54.27 0 27.54 0 0 Z " fill="#60D9FB" transform="translate(642,84)"/>
<path d="M0 0 C4.79912476 3.67353047 7.54403849 7.84779561 9.01953125 13.71484375 C9.95969428 21.6238441 9.55726665 28.06690272 5.01953125 34.71484375 C4.48328125 35.60171875 3.94703125 36.48859375 3.39453125 37.40234375 C-2.24268246 42.89120973 -8.21528451 45.0436611 -16.04296875 45.33984375 C-23.47373927 45.04132202 -28.45256826 43.1284494 -33.7890625 37.96484375 C-39.46448573 31.64974452 -40.85101207 26.1648345 -40.98046875 17.71484375 C-40.45213362 11.1634881 -37.33976116 5.55338184 -32.98046875 0.71484375 C-22.16346407 -7.1776328 -11.13194651 -7.22368915 0 0 Z " fill="#61DAFB" transform="translate(154.98046875,104.28515625)"/>
<path d="M0 0 C8.16237352 8.76621032 6.35868021 23.61900652 6.5625 35 C6.60672637 37.21518511 6.6534874 39.43024278 6.70530701 41.64526367 C6.75120884 43.63318074 6.78906375 45.62127891 6.82641602 47.609375 C6.93247953 51.29386915 6.93247953 51.29386915 8 56 C4.37 56 0.74 56 -3 56 C-3.66 54.35 -4.32 52.7 -5 51 C-6.21236328 51.63228516 -6.21236328 51.63228516 -7.44921875 52.27734375 C-8.51785156 52.82519531 -9.58648438 53.37304688 -10.6875 53.9375 C-12.27111328 54.75541016 -12.27111328 54.75541016 -13.88671875 55.58984375 C-20.42133843 58.54969031 -27.38330603 59.11221074 -34.1875 56.75 C-39.13351824 54.6552158 -42.18482193 52.4898082 -44.8125 47.6875 C-46.56481076 42.24611395 -46.72564065 38.14729541 -44.5 32.875 C-41.90480912 28.28009013 -38.91265307 25.89560398 -34 24 C-28.70733306 22.68682482 -23.38921113 21.80844563 -18 21 C-16.70449219 20.79375 -15.40898438 20.5875 -14.07421875 20.375 C-11.05169907 19.89932477 -8.02778463 19.44068783 -5 19 C-5.68789497 15.5081141 -6.52537871 12.24730434 -8 9 C-12.71681817 5.85545455 -17.47517152 5.22934613 -23 6 C-27.8029789 7.27441135 -27.8029789 7.27441135 -31.1015625 10.7578125 C-32.06091685 12.88576744 -32.06091685 12.88576744 -33 16 C-40.42857143 16.14285714 -40.42857143 16.14285714 -44 15 C-43.45992877 9.32925213 -41.67742564 5.52442989 -37.49609375 1.58203125 C-27.34444815 -6.44978116 -10.97897025 -6.30207339 0 0 Z M-17.875 29.8125 C-18.77347656 29.97814453 -19.67195312 30.14378906 -20.59765625 30.31445312 C-25.24262048 31.22354878 -29.16756657 32.04421632 -33 35 C-34.54586876 38.09173752 -34.29359521 40.59429552 -34 44 C-32.13291495 46.36497439 -30.67938569 47.66030715 -28 49 C-21.19753841 49.77128282 -15.58992884 49.11821547 -10 45 C-5.25982883 40.01674313 -5.23363867 34.5652466 -5 28 C-9.40152384 28 -13.56526218 28.96955697 -17.875 29.8125 Z " fill="#60D9FB" transform="translate(764,109)"/>
<path d="M0 0 C3.75630281 2.97373973 5.58353219 5.47131478 7 10 C7.20966637 12.85759568 7.32434359 15.62637342 7.34375 18.484375 C7.3583728 19.29940491 7.37299561 20.11443481 7.38806152 20.9541626 C7.43439456 23.5527254 7.4686603 26.15121582 7.5 28.75 C7.5414819 32.16172637 7.59533013 35.57294644 7.65625 38.984375 C7.6615271 39.75344177 7.6668042 40.52250854 7.67224121 41.31488037 C7.77019426 46.74745046 8.64582186 51.74201965 10 57 C6.29212965 57.28328381 2.69681924 57.46346554 -1 57 C-3.1875 54.5 -3.1875 54.5 -4 52 C-4.47308594 52.33773437 -4.94617188 52.67546875 -5.43359375 53.0234375 C-12.9953085 58.1235414 -21.09316327 60.33524084 -30.22265625 58.5703125 C-36.25697459 56.93832657 -39.52744236 54.14682651 -43 49 C-44.85979392 45.28041216 -44.4381614 41.05907851 -44 37 C-42.31668774 32.14218038 -39.26366062 28.8077765 -35 26 C-31.30094234 24.3107041 -27.83950538 23.52307961 -23.82421875 22.9296875 C-22.66728516 22.75566406 -21.51035156 22.58164063 -20.31835938 22.40234375 C-19.12017578 22.22832031 -17.92199219 22.05429688 -16.6875 21.875 C-15.46998047 21.69324219 -14.25246094 21.51148438 -12.99804688 21.32421875 C-9.99950289 20.8773769 -6.99985326 20.43796582 -4 20 C-4.66 16.37 -5.32 12.74 -6 9 C-12.60828756 7.14504209 -17.91597787 6.11138345 -24.6875 8.0625 C-28.92645715 10.54189003 -29.9340667 12.6202214 -32 17 C-36.34263862 17.16702456 -39.20960634 17.12999997 -43 15 C-40.20171375 7.82450621 -37.67272723 2.83636361 -30.5 -0.75 C-20.68043069 -4.25698904 -9.57823655 -4.41126124 0 0 Z M-17.9375 31.1875 C-18.93974609 31.38408203 -19.94199219 31.58066406 -20.97460938 31.78320312 C-26.85005039 33.04741869 -26.85005039 33.04741869 -31.6953125 36.44921875 C-33.52717766 40.03067968 -33.06070524 42.18146113 -32 46 C-30.10466125 48.58455285 -29.11173483 48.96275506 -26 50 C-20.03110719 50.53422104 -15.06406302 50.53306722 -10 47 C-6.67140179 43.689492 -4.11260936 40.60803282 -3.90234375 35.73828125 C-3.91394531 34.93777344 -3.92554688 34.13726562 -3.9375 33.3125 C-3.94652344 32.50425781 -3.95554687 31.69601563 -3.96484375 30.86328125 C-3.97644531 30.24839844 -3.98804688 29.63351563 -4 29 C-8.76693859 29 -13.29036194 30.19019619 -17.9375 31.1875 Z " fill="#61DAFB" transform="translate(501,108)"/>
<path d="M0 0 C6.23214879 4.75236917 9.05333466 11.25750796 10.3125 18.8125 C10.3125 22.1125 10.3125 25.4125 10.3125 28.8125 C-3.8775 28.8125 -18.0675 28.8125 -32.6875 28.8125 C-30.23377747 38.18599676 -30.23377747 38.18599676 -24.6875 44.8125 C-19.7681872 47.38395896 -14.96309237 47.14846332 -9.6875 45.8125 C-5.36049422 43.27273574 -3.65523601 40.36936233 -1.6875 35.8125 C2.49251995 35.73053882 6.23462105 35.91804296 10.3125 36.8125 C8.00403291 44.36057989 5.14091933 49.58873547 -1.6875 53.8125 C-10.36049661 57.66716516 -19.73223156 58.08461731 -28.6875 54.8125 C-35.33728733 51.06900462 -39.85640166 45.93247125 -42.9375 39 C-45.29763914 28.96940867 -45.04972367 19.19050392 -41.4375 9.4375 C-31.5311496 -5.42202561 -15.55383457 -9.92227378 0 0 Z M-30.125 10.6875 C-32.04515128 14.14487828 -32.04515128 14.14487828 -32.6875 19.8125 C-22.4575 19.8125 -12.2275 19.8125 -1.6875 19.8125 C-2.2958317 11.97169761 -2.2958317 11.97169761 -6.6875 6.8125 C-15.55372313 2.0510098 -23.53694607 2.91697486 -30.125 10.6875 Z " fill="#61DAFB" transform="translate(936.6875,110.1875)"/>
<path d="M0 0 C6.23214879 4.75236917 9.05333466 11.25750796 10.3125 18.8125 C10.3125 22.1125 10.3125 25.4125 10.3125 28.8125 C-3.8775 28.8125 -18.0675 28.8125 -32.6875 28.8125 C-30.23377747 38.18599676 -30.23377747 38.18599676 -24.6875 44.8125 C-19.7999886 47.36733551 -14.9208161 47.26359838 -9.6875 45.8125 C-6.20786924 43.89907247 -4.07180304 41.59857439 -2.3125 38 C-2.10625 37.278125 -1.9 36.55625 -1.6875 35.8125 C2.49251995 35.73053882 6.23462105 35.91804296 10.3125 36.8125 C8.00403291 44.36057989 5.14091933 49.58873547 -1.6875 53.8125 C-10.51372673 57.73526743 -18.311873 57.71943587 -27.3671875 54.71484375 C-34.03671602 52.12113821 -38.04945564 47.81923991 -41.6875 41.8125 C-43 38.375 -43 38.375 -43.6875 34.8125 C-43.82027344 34.15894531 -43.95304687 33.50539062 -44.08984375 32.83203125 C-45.64201208 23.25741984 -44.05121391 12.99556798 -38.44140625 5.046875 C-28.81689092 -7.36848895 -12.6925359 -8.09696256 0 0 Z M-27.6875 7.8125 C-31.29402689 12.06635222 -31.73397561 14.09135366 -32.6875 19.8125 C-22.4575 19.8125 -12.2275 19.8125 -1.6875 19.8125 C-1.6875 13.58802785 -2.00625349 12.41405813 -5.6875 7.8125 C-12.24870336 2.05754621 -20.94739119 2.62899831 -27.6875 7.8125 Z " fill="#61DAFB" transform="translate(438.6875,110.1875)"/>
<path d="M0 0 C3.33007949 3.60758611 5.62495255 7.80224561 7.25 12.4375 C6.755 13.9225 6.755 13.9225 6.25 15.4375 C2.95 15.7675 -0.35 16.0975 -3.75 16.4375 C-4.1625 15.344375 -4.575 14.25125 -5 13.125 C-6.43391465 9.86909289 -7.42591298 8.01206753 -10.75 6.4375 C-15.20142754 5.35012839 -18.66719959 5.09018666 -23.0625 6.5 C-27.95622467 10.02803407 -29.81601644 13.83834452 -31.0625 19.625 C-32.25372472 27.43177628 -32.3465734 35.70680323 -27.75 42.4375 C-24.2316189 46.2663265 -20.99492098 47.18754296 -15.96484375 47.5390625 C-11.72780683 47.34477157 -8.93808658 45.62558658 -6 42.6875 C-4.35404559 39.72478206 -3.56912302 36.71399208 -2.75 33.4375 C0.55 33.7675 3.85 34.0975 7.25 34.4375 C8.6532728 38.64731841 7.36738637 40.88132419 5.67578125 44.86328125 C2.32260518 50.91737175 -3.19497663 54.94823198 -9.7578125 57.00390625 C-17.97771439 58.79294372 -26.48472072 56.75919177 -33.5625 52.3125 C-39.82386101 47.35066675 -42.40217793 40.09580603 -43.53515625 32.40234375 C-44.361436 20.99968326 -42.614869 11.23527012 -35.49609375 2.19921875 C-25.9973042 -7.38457115 -10.91439569 -6.20136119 0 0 Z " fill="#61DAFB" transform="translate(562.75,109.5625)"/>
<path d="M0 0 C3.63 0 7.26 0 11 0 C16.53204352 14.60158426 21.90587204 29.23999383 27 44 C27.37809814 42.91581787 27.75619629 41.83163574 28.14575195 40.71459961 C29.55781582 36.66766684 30.97313345 32.62187822 32.3894043 28.57641602 C33.00030998 26.82997868 33.61034921 25.08323799 34.21948242 23.33618164 C35.09843426 20.81575311 35.98056274 18.2964552 36.86328125 15.77734375 C37.13215652 15.00414291 37.4010318 14.23094208 37.67805481 13.43431091 C39.28181088 8.86905777 41.04439673 4.42637857 43 0 C46.63 0 50.26 0 54 0 C53.24221635 3.78891824 52.41131736 6.85390634 51.06640625 10.41699219 C50.66929443 11.47448669 50.27218262 12.5319812 49.86303711 13.621521 C49.21927124 15.31707123 49.21927124 15.31707123 48.5625 17.046875 C48.12236572 18.21381897 47.68223145 19.38076294 47.22875977 20.58306885 C46.06151675 23.67442123 44.89062945 26.76436307 43.71838379 29.8538208 C42.7600777 32.38327665 41.80669162 34.91457436 40.85334778 37.44590378 C39.71754558 40.45979205 38.57739782 43.47203383 37.4375 46.484375 C37.00832275 47.62283875 36.57914551 48.76130249 36.13696289 49.93426514 C35.54129517 51.50159393 35.54129517 51.50159393 34.93359375 53.10058594 C34.58353271 54.02482361 34.23347168 54.94906128 33.87280273 55.90130615 C33 58 33 58 32 59 C28.66672158 59.1424478 25.33546107 59.04222103 22 59 C17.48979086 48.46191573 13.40707746 37.76690947 9.3125 27.0625 C8.29714924 24.41255272 7.28131118 21.76279299 6.2651825 19.11314392 C5.63800814 17.4772591 5.01136192 15.84117167 4.3853302 14.20484924 C4.10130844 13.46314987 3.81728668 12.7214505 3.5246582 11.95727539 C3.12967636 10.92245529 3.12967636 10.92245529 2.72671509 9.86672974 C2.11031656 8.28337268 1.45601693 6.71485238 0.79370117 5.15014648 C0 3 0 3 0 0 Z " fill="#61DAFB" transform="translate(834,106)"/>
<path d="M0 0 C0 6.6 0 13.2 0 20 C2.97 20 5.94 20 9 20 C10 21 10 21 10.09765625 22.84765625 C10.06510417 24.8984375 10.03255208 26.94921875 10 29 C6.7 29 3.4 29 0 29 C0.11793339 34.53604375 0.24215781 40.07189613 0.37231445 45.60766602 C0.41572933 47.49239218 0.45739943 49.37715936 0.49731445 51.26196289 C0.55485893 53.96513249 0.61859804 56.66809436 0.68359375 59.37109375 C0.70030624 60.21900986 0.71701874 61.06692596 0.73423767 61.9405365 C0.46409195 65.78292076 0.46409195 65.78292076 2 69 C3.34747084 69.23075082 4.70377565 69.41153063 6.0625 69.5625 C7.361875 69.706875 8.66125 69.85125 10 70 C10.19412181 71.47831221 10.38012131 72.95769316 10.5625 74.4375 C10.66691406 75.26121094 10.77132812 76.08492188 10.87890625 76.93359375 C10.91886719 77.61550781 10.95882812 78.29742187 11 79 C9.15057253 80.84942747 6.29573569 80.2591876 3.8125 80.3125 C-3.62171455 80.23098449 -3.62171455 80.23098449 -6.6875 78.4375 C-11.66117019 73.19498277 -11.27933744 66.39435463 -11.1953125 59.56640625 C-11.1924826 58.68846909 -11.18965271 57.81053192 -11.18673706 56.9059906 C-11.17561598 54.12468355 -11.15052672 51.34370836 -11.125 48.5625 C-11.11495975 46.66732239 -11.10583573 44.77213968 -11.09765625 42.87695312 C-11.07570315 38.25117583 -11.0412296 33.62564402 -11 29 C-13.31 29 -15.62 29 -18 29 C-18 26.03 -18 23.06 -18 20 C-15.69 20 -13.38 20 -11 20 C-11.11601563 19.05898437 -11.23203125 18.11796875 -11.3515625 17.1484375 C-11.63591128 13.22442431 -11.72736476 9.87354014 -11 6 C-8.31123923 3.22017603 -4.10587224 0 0 0 Z " fill="#60D9FA" transform="translate(591,86)"/>
<path d="M0 0 C0 6.6 0 13.2 0 20 C3.3 20 6.6 20 10 20 C10 22.97 10 25.94 10 29 C6.7 29 3.4 29 0 29 C0.11822835 34.2145927 0.24247541 39.428994 0.37231445 44.64331055 C0.41563934 46.41735937 0.45731619 48.19144923 0.49731445 49.96557617 C0.5550762 52.51493705 0.61875362 55.0640918 0.68359375 57.61328125 C0.70030624 58.40712723 0.71701874 59.20097321 0.73423767 60.01887512 C0.82117718 63.24683077 0.97250366 65.91751099 2 69 C4.64 69.33 7.28 69.66 10 70 C10.66 72.97 11.32 75.94 12 79 C9.32344199 80.33827901 7.17565948 80.20578556 4.1875 80.25 C2.63095703 80.28867188 2.63095703 80.28867188 1.04296875 80.328125 C-3.24088613 79.86619456 -5.77418472 78.38074114 -8.62251282 75.17242432 C-10.19903807 72.68609861 -10.3656899 71.42002828 -10.34057617 68.50683594 C-10.34034958 67.62622498 -10.34012299 66.74561401 -10.33988953 65.83831787 C-10.32440567 64.89651672 -10.30892181 63.95471558 -10.29296875 62.984375 C-10.28872391 62.01340881 -10.28447906 61.04244263 -10.28010559 60.04205322 C-10.26332853 56.94441869 -10.22567772 53.84743751 -10.1875 50.75 C-10.17245192 48.6484469 -10.15876373 46.5468836 -10.14648438 44.4453125 C-10.11342811 39.29662371 -10.06165208 34.14842259 -10 29 C-12.64 29 -15.28 29 -18 29 C-18.09765625 22.84765625 -18.09765625 22.84765625 -18 21 C-17 20 -17 20 -13.4375 19.9375 C-12.303125 19.958125 -11.16875 19.97875 -10 20 C-10.10441406 19.05898437 -10.20882812 18.11796875 -10.31640625 17.1484375 C-10.97063072 7.11699567 -10.97063072 7.11699567 -8.03125 3.734375 C-2.30279126 0 -2.30279126 0 0 0 Z " fill="#60D9FA" transform="translate(796,86)"/>
<path d="M0 0 C3.3 0 6.6 0 10 0 C11 1 11 1 11.12025452 3.32215881 C11.1169236 4.86437355 11.1169236 4.86437355 11.11352539 6.43774414 C11.11344986 7.59887222 11.11337433 8.76000031 11.11329651 9.95631409 C11.10813522 11.219832 11.10297394 12.48334991 11.09765625 13.78515625 C11.0962413 15.07111191 11.09482635 16.35706757 11.09336853 17.68199158 C11.08954418 21.10643443 11.07971462 24.53083509 11.06866455 27.95526123 C11.05844864 31.44738189 11.05387053 34.93950934 11.04882812 38.43164062 C11.03809226 45.28777953 11.02049614 52.1438834 11 59 C7.37 59 3.74 59 0 59 C0 39.53 0 20.06 0 0 Z " fill="#61DAFB" transform="translate(815,106)"/>
<path d="M0 0 C7.71484375 -0.09765625 7.71484375 -0.09765625 10 0 C11 1 11 1 11.1328125 3.46875 C11.13023437 4.4690625 11.12765625 5.469375 11.125 6.5 C11.12757813 7.5003125 11.13015625 8.500625 11.1328125 9.53125 C11 12 11 12 10 13 C6.66381769 13.14257189 3.34024394 13.04228157 0 13 C0 8.71 0 4.42 0 0 Z " fill="#61DAFB" transform="translate(815,84)"/>
</svg>
